<?xml version="1.0" encoding="utf-8"?>
<!-- Generator: Adobe Illustrator 21.0.2, SVG Export Plug-In . SVG Version: 6.00 Build 0)  -->
<svg version="1.1" id="Layer_1" xmlns="http://www.w3.org/2000/svg" xmlns:xlink="http://www.w3.org/1999/xlink" x="0px" y="0px"
	 viewBox="0 0 360 360" style="enable-background:new 0 0 360 360;" xml:space="preserve">
<g>
	<g>
		<g>
			<polygon points="136.4,155.9 159.5,143.7 182.6,155.9 178.2,130.2 196.9,112 171.1,108.2 159.5,84.8 148,108.2 122.2,112 
				140.9,130.2 			"/>
		</g>
		<g>
			<path d="M292.6,172.8L255.9,287h-0.5l-42.6-116.6l51-63.5c0,0,3.4,3.4,4.6,4.4c1.1,1.1,1.9,0.8,1.9,0.8s0.6,1,0.9,1.6
				c0.3,0.6,2.3,1.5,2.3,1.5s1.4,1.7,2.3,5.6c0.9,3.9-3.6,8.6-3,9.3c0.6,0.7,0,1.8,5.6-1.3c5.6-3.1,7.7-7.9,8.3-12.2
				c0.6-4.4-4.2-9.2-4.2-9.2s0,0-0.3-1.2c-0.3-1.2-2.3-3.3-2.3-3.3l-1.7,0.5L278,102c0,0-0.4-0.5-2.9-1.6c-2.5-1.1-4.6-2.5-6.9-4.4
				c-2.2-1.9-2.8-4.4-2.8-4.4s11.8-15.1,13.7-17.6l9.7-16.3L290,57l4.3-6.2l11.2-10c0.9-0.7,2.6-0.1,3.7-1.6
				c2.3-3.1,1.4-8.5-3.9-13.1l0,0c-0.1-0.1-0.2-0.1-0.3-0.2c-0.1-0.1-0.2-0.2-0.3-0.2l0,0c-5.9-3.8-11.3-3.2-13.6-0.2
				c-1.1,1.5-0.1,3-0.5,4L284.1,43l-4.8,5.8l-0.4,1.3l-15.1,15.8c-3.1,4.2-10.6,14.1-11.8,15.7c-0.7,0-2.7-0.1-4.7-1.5
				c-2.4-1.6-4.4-3.3-6.1-5.4c-1.7-2.1-2.3-2.3-2.3-2.3l-1.4,0.3l0-1.8c0,0-2.6-1.4-3.8-1.3c-1.2,0.1-1.2,0.1-1.2,0.1s-6-3.3-10-1.6
				s-8.1,5.1-9.5,11.3c-1.4,6.2-0.6,5.4,0.3,5.8c0.8,0.4,4.1-5.2,8.1-5.4c4-0.2,6,0.7,6,0.7s1.4,1.7,2.1,1.8
				c0.7,0.1,1.8,0.4,1.8,0.4s0,0.8,1.3,1.6c1.3,0.8,5.5,3.2,5.5,3.2l-89.4,125.7L96.5,79.6h-23L12.8,235.7H34l17.5-47h66l16.5,45.4
				C120.3,254.2,76.5,319,74.5,325c-1.3,4-2.3,7.9-3,10.5l-1.9,2.5c0,0,0.5-0.3,1.4-0.8c-0.2,1-0.4,1.6-0.4,1.6l1.9-2.5
				c2.3-1.3,5.7-3.4,9.2-5.7c6.2-4.2,73.8-89.1,73.8-89.1l9.5-11.8v109.3h34.2V222.3h0.5l40.7,116.5h28.1l40.7-117.7h0.5v117.7H344
				V172.8H292.6z M58.1,171.2l26.4-72.8h0.4l26,72.8H58.1z"/>
		</g>
	</g>
</g>
</svg>
