<svg width="48" height="46" viewBox="0 0 48 46" fill="none" xmlns="http://www.w3.org/2000/svg">
<g clip-path="url(#clip0_309_62)">
<path d="M17.9238 19.3521L21.2725 17.5797L24.6114 19.3521L23.9788 15.6074L26.6851 12.9505L22.9419 12.4067L21.2725 8.99951L19.5932 12.4067L15.8533 12.9505L18.5563 15.6074L17.9238 19.3521Z" fill="#010101"/>
<path d="M40.5494 21.8124L35.2215 38.4453H35.153L28.9709 21.4586L36.3693 12.2101C36.3693 12.2101 36.8649 12.7015 37.0279 12.8555C37.1909 13.0095 37.3018 12.9767 37.3018 12.9767C37.3018 12.9767 37.3866 13.1241 37.429 13.2192C37.4714 13.3043 37.7616 13.4419 37.7616 13.4419C37.7616 13.4419 37.967 13.6844 38.0942 14.261C38.2213 14.8376 37.5724 15.5157 37.6572 15.6206C37.7518 15.7156 37.6572 15.8794 38.4724 15.424C39.2875 14.9752 39.5843 14.2806 39.6723 13.6418C39.7571 13.0062 39.056 12.3084 39.056 12.3084L39.0137 12.1348C38.9713 11.9611 38.6811 11.6532 38.6811 11.6532L38.4333 11.722L38.4235 11.5156C38.4235 11.5156 38.3648 11.4468 38.0126 11.283C37.654 11.129 37.3442 10.9128 37.0181 10.6376C36.6921 10.3624 36.6073 9.99218 36.6073 9.99218C36.6073 9.99218 38.3126 7.79063 38.593 7.42698L39.9984 5.05179L40.1614 4.94695L40.7874 4.04275L42.4145 2.5816C42.5417 2.48659 42.7927 2.56522 42.9525 2.34899C43.2949 1.90016 43.1482 1.11062 42.3884 0.448842L42.3982 0.439014C42.3819 0.429186 42.3721 0.422633 42.3558 0.412805C42.3395 0.402977 42.3297 0.386596 42.3134 0.376768L42.3036 0.386596C41.4559 -0.163792 40.6668 -0.0851652 40.3244 0.360387C40.1614 0.576611 40.3081 0.789559 40.2462 0.946813L39.2941 2.91576L38.6191 3.76755L38.5669 3.94774L36.3823 6.25413C35.9356 6.85693 34.8498 8.3017 34.6705 8.53431C34.5759 8.53431 34.2759 8.51793 33.9857 8.31808C33.6336 8.07565 33.3434 7.82666 33.0956 7.52526C32.8478 7.22386 32.763 7.1911 32.763 7.1911L32.5674 7.23369V6.97487C32.5674 6.97487 32.1891 6.76848 32.0196 6.77831L31.8467 6.78813C31.8467 6.78813 30.9827 6.29672 30.399 6.55553C29.8154 6.81434 29.2252 7.29593 29.0198 8.20014C28.8143 9.1109 28.935 8.98313 29.0556 9.0421C29.1763 9.10107 29.6556 8.28532 30.236 8.24928C30.8164 8.21325 31.1098 8.35412 31.1098 8.35412C31.1098 8.35412 31.3153 8.59655 31.4196 8.61293C31.5142 8.62931 31.6837 8.6719 31.6837 8.6719C31.6837 8.6719 31.6837 8.78329 31.8728 8.90451C32.062 9.02572 32.6684 9.36972 32.6684 9.36972L19.6943 27.6898L12.1329 8.24273H8.81027L0 30.9692H3.07479L5.60831 24.1188H15.1751L17.5651 30.7366C15.5794 33.672 9.22437 43.1007 8.9407 43.9787C8.75158 44.5651 8.59833 45.122 8.50377 45.502L8.23966 45.8624C8.23966 45.8624 8.31791 45.8198 8.44508 45.7412C8.41899 45.8886 8.39291 45.9738 8.39291 45.9738L8.65702 45.6134C8.98961 45.4169 9.48849 45.122 9.99389 44.778C10.8938 44.1752 20.6888 31.8013 20.6888 31.8013L22.0681 30.0813V45.9902H27.0275V29.0297H27.096L32.9978 45.9967H37.0736L42.9753 28.8561H43.0438V45.9967H48.0033V21.819H40.5527V21.8091L40.5494 21.8124ZM6.56042 21.5798L10.3982 10.9783H10.4569L14.2262 21.5798H6.56042Z" fill="#010101"/>
</g>
<defs>
<clipPath id="clip0_309_62">
<rect width="48" height="46" fill="white"/>
</clipPath>
</defs>
</svg>
